<svg xmlns="http://www.w3.org/2000/svg" xmlns:xlink="http://www.w3.org/1999/xlink" width="305" zoomAndPan="magnify" viewBox="0 0 228.75 258.749997" height="345" preserveAspectRatio="xMidYMid meet" version="1.2"><defs><clipPath id="b55aa579bf"><path d="M 0 0.015625 L 228.5 0.015625 L 228.5 258.484375 L 0 258.484375 Z M 0 0.015625 "/></clipPath><clipPath id="8c89722a3e"><path d="M 0 0.015625 L 228.125 0.015625 L 228.125 258.21875 L 0 258.21875 Z M 0 0.015625 "/></clipPath><clipPath id="7bd057eb07"><path d="M 0 0.015625 L 228.125 0.015625 L 228.125 258.21875 L 0 258.21875 Z M 0 0.015625 "/></clipPath><clipPath id="71958c6557"><rect x="0" width="229" y="0" height="259"/></clipPath><clipPath id="c791ad06e7"><path d="M 14.328125 126 L 210.617188 126 L 210.617188 251.316406 L 14.328125 251.316406 Z M 14.328125 126 "/></clipPath><clipPath id="301f37e02a"><path d="M 23 15.453125 L 202 15.453125 L 202 102 L 23 102 Z M 23 15.453125 "/></clipPath></defs><g id="62a160c574"><g clip-rule="nonzero" clip-path="url(#b55aa579bf)"><path style=" stroke:none;fill-rule:nonzero;fill:#ffffff;fill-opacity:1;" d="M 0 0.015625 L 228.5 0.015625 L 228.5 258.484375 L 0 258.484375 Z M 0 0.015625 "/></g><g clip-rule="nonzero" clip-path="url(#8c89722a3e)"><g transform="matrix(1,0,0,1,0,0.000000000000014252)"><g clip-path="url(#71958c6557)"><g clip-rule="nonzero" clip-path="url(#7bd057eb07)"><path style=" stroke:none;fill-rule:nonzero;fill:#ffffff;fill-opacity:1;" d="M 0 0.015625 L 228.125 0.015625 L 228.125 258.441406 L 0 258.441406 Z M 0 0.015625 "/></g></g></g></g><g clip-rule="nonzero" clip-path="url(#c791ad06e7)"><path style=" stroke:none;fill-rule:nonzero;fill:#00bf63;fill-opacity:1;" d="M 210.296875 126.125 L 210.296875 213.347656 L 185.066406 211.597656 C 176.136719 211.03125 166.121094 213.253906 156.527344 217.269531 C 145.945312 221.664062 136.070312 228.183594 128.980469 235.175781 L 112.347656 251.574219 L 95.765625 235.175781 C 88.675781 228.183594 78.800781 221.617188 68.21875 217.269531 C 58.671875 213.300781 48.609375 211.078125 39.679688 211.597656 L 14.449219 213.347656 L 14.449219 126.125 L 24.417969 126.125 L 24.417969 202.761719 L 38.96875 201.722656 C 49.554688 201.015625 61.128906 203.566406 72.046875 208.101562 C 83.761719 212.96875 94.726562 220.199219 102.804688 228.089844 L 112.347656 237.632812 L 121.988281 228.089844 C 129.972656 220.199219 141.03125 212.96875 152.75 208.101562 C 163.570312 203.566406 175.191406 201.015625 185.730469 201.722656 L 200.375 202.761719 L 200.375 126.125 Z M 210.296875 126.125 "/></g><g clip-rule="nonzero" clip-path="url(#301f37e02a)"><path style=" stroke:none;fill-rule:nonzero;fill:#00bf63;fill-opacity:1;" d="M 167.394531 78.164062 L 167.394531 63.1875 L 201.746094 48.632812 L 112.347656 15.324219 L 23.046875 48.632812 L 57.304688 63.1875 L 57.304688 78.164062 C 72.28125 80.386719 86.691406 86.054688 99.828125 93.757812 C 103.890625 96.167969 108.191406 98.957031 112.347656 101.980469 C 116.507812 98.957031 120.808594 96.167969 124.871094 93.757812 C 138.007812 86.054688 152.417969 80.386719 167.394531 78.164062 Z M 167.394531 78.164062 "/></g><path style=" stroke:none;fill-rule:nonzero;fill:#00bf63;fill-opacity:1;" d="M 107.386719 124.140625 L 107.386719 111.335938 C 94.488281 101.316406 68.125 84.636719 37.695312 86.8125 L 33.0625 87.144531 L 33.0625 193.503906 L 38.308594 193.125 C 72.140625 190.714844 100.679688 214.527344 107.386719 220.625 Z M 95.054688 132.265625 C 90.09375 129.148438 84.472656 126.078125 78.1875 123.335938 C 68.453125 119.179688 57.398438 116.011719 45.445312 115.683594 L 45.445312 110.671875 C 58.105469 111.050781 69.917969 114.40625 80.078125 118.800781 C 85.558594 121.117188 90.613281 123.761719 95.054688 126.453125 Z M 95.054688 159.8125 C 90.09375 156.695312 84.472656 153.625 78.1875 150.882812 C 68.453125 146.726562 57.398438 143.558594 45.445312 143.226562 L 45.445312 138.21875 C 58.105469 138.597656 69.917969 141.953125 80.078125 146.347656 C 85.558594 148.664062 90.613281 151.308594 95.054688 154 Z M 95.054688 187.359375 C 90.09375 184.242188 84.472656 181.171875 78.1875 178.429688 C 68.453125 174.273438 57.398438 171.105469 45.445312 170.773438 L 45.445312 165.765625 C 58.105469 166.144531 69.917969 169.5 80.078125 173.800781 C 85.558594 176.207031 90.613281 178.808594 95.054688 181.546875 Z M 178.59375 115.683594 C 166.96875 116.152344 156.054688 119.273438 146.558594 123.335938 C 139.945312 126.125 134.039062 129.480469 128.933594 132.644531 L 128.933594 126.832031 C 133.566406 124.046875 138.808594 121.164062 144.527344 118.800781 C 154.542969 114.5 166.121094 111.238281 178.546875 110.769531 L 178.546875 115.683594 Z M 178.59375 143.226562 C 166.96875 143.699219 156.054688 146.820312 146.558594 150.882812 C 139.945312 153.671875 134.039062 157.023438 128.933594 160.191406 L 128.933594 154.378906 C 133.566406 151.589844 138.808594 148.710938 144.527344 146.347656 C 154.542969 142.046875 166.121094 138.785156 178.546875 138.3125 L 178.546875 143.226562 Z M 178.59375 170.824219 C 166.96875 171.292969 156.054688 174.414062 146.558594 178.476562 C 139.945312 181.265625 134.039062 184.621094 128.933594 187.785156 L 128.933594 181.972656 C 133.566406 179.089844 138.808594 176.304688 144.527344 173.847656 C 154.542969 169.546875 166.121094 166.285156 178.546875 165.859375 L 178.546875 170.824219 Z M 117.359375 207.582031 L 117.359375 220.480469 C 124.066406 214.433594 152.558594 190.621094 186.34375 192.984375 L 191.683594 193.359375 L 191.683594 87.09375 L 187.050781 86.765625 C 156.527344 84.589844 130.257812 101.269531 117.359375 111.289062 Z M 117.359375 207.582031 "/></g></svg>